<svg version="1.1" xmlns="http://www.w3.org/2000/svg" xmlns:xlink="http://www.w3.org/1999/xlink" viewBox="256.64 240.28 503.65 539.9">
<path fill="#000000" opacity="1.000000" stroke="none" 
	d="
M426.153931,382.803894 
	C404.541077,347.750671 383.049377,313.051117 361.765533,278.224609 
	C359.123871,273.902100 356.252899,272.046417 351.013977,272.192841 
	C336.692657,272.593079 322.352905,272.334442 308.020477,272.336609 
	C306.064606,272.336914 304.108734,272.336639 301.625732,272.336639 
	C302.390869,276.402863 304.402954,279.046753 306.162292,281.757050 
	C353.421783,354.561005 400.698303,427.353912 447.992218,500.135498 
	C458.885376,516.899231 469.864716,533.606995 480.780609,550.356018 
	C485.837006,558.114380 488.186523,566.798157 488.201202,575.911621 
	C488.299286,636.741577 488.222534,697.571838 488.187836,758.402039 
	C488.184967,763.480225 487.197571,768.299072 484.358978,772.654358 
	C480.671906,778.311523 474.254883,781.038391 468.035065,779.451721 
	C461.771179,777.853821 457.234772,772.427124 456.716156,765.791138 
	C456.573639,763.968079 456.654968,762.126526 456.654968,760.293457 
	C456.654907,699.129761 456.653839,637.966003 456.665680,576.802307 
	C456.666748,571.210938 456.187469,565.690674 452.348358,561.270081 
	C441.363068,548.620911 433.122253,534.076294 424.008087,520.162170 
	C389.317749,467.202179 354.922150,414.049133 320.402557,360.977264 
	C300.783691,330.814331 281.136230,300.670013 261.506775,270.513977 
	C259.138062,266.875000 256.835266,263.228241 256.655487,258.660065 
	C256.266357,248.770538 263.390350,240.764893 273.300568,240.721130 
	C303.631531,240.587173 333.963806,240.596344 364.294800,240.727814 
	C372.460815,240.763199 377.858978,245.928619 381.959625,252.250320 
	C388.847961,262.869659 395.368378,273.728546 401.998901,284.514069 
	C426.515808,324.394348 451.074005,364.249481 475.501221,404.184692 
	C495.146851,436.302643 514.608826,468.532898 534.189880,500.690491 
	C539.460754,509.346710 544.868469,517.919617 550.624512,527.193115 
	C604.638184,442.091858 660.285400,358.620911 714.663513,274.489441 
	C712.276672,271.872223 709.813721,272.447205 707.574219,272.442017 
	C683.575623,272.386353 659.576782,272.401154 635.578125,272.357086 
	C633.424438,272.353119 631.195679,272.378021 629.131348,271.866608 
	C621.258667,269.916168 615.958252,262.474274 616.721558,254.767181 
	C617.458130,247.330246 624.440125,241.052078 632.523621,240.680450 
	C656.839111,239.562576 681.160156,241.177444 705.477478,240.571320 
	C717.464966,240.272507 729.443848,240.121506 741.440796,240.566925 
	C756.743530,241.135071 765.113098,255.027435 757.327881,268.307312 
	C750.510620,279.936218 742.777954,291.030884 735.388245,302.321381 
	C707.200500,345.388214 678.955322,388.417450 650.793823,431.501373 
	C622.908203,474.162994 595.096680,516.873047 567.254822,559.563232 
	C562.515198,566.830505 559.978394,574.528503 560.017578,583.484253 
	C560.269592,641.146790 560.166260,698.810852 560.168518,756.474426 
	C560.168640,759.801575 560.234558,763.119873 559.555115,766.429504 
	C557.872498,774.626099 551.014465,780.568115 543.520386,780.153931 
	C535.811462,779.727905 529.276611,772.830872 528.701111,764.482178 
	C528.620972,763.320374 528.654968,762.149902 528.655029,760.983459 
	C528.658997,698.986450 528.681091,636.989441 528.635376,574.992432 
	C528.632263,570.762939 529.036255,566.666992 530.725891,562.789612 
	C532.499023,558.720581 531.748657,555.089111 529.473267,551.432373 
	C514.423706,527.246948 499.344208,503.079346 484.460052,478.792175 
	C466.962646,450.240814 449.652130,421.574951 432.264343,392.956451 
	C430.276611,389.684814 428.313263,386.398376 426.153931,382.803894 
z"/>
</svg>